<?xml version="1.0" ?><svg data-name="Layer 2" id="Layer_2" viewBox="0 0 2050 2050" xmlns="http://www.w3.org/2000/svg"><defs><style>.cls-1{fill:#f8881b;}.cls-2{fill:#323150;}.cls-3,.cls-5{opacity:0.2;}.cls-4{fill:#c8c2e9;}.cls-5,.cls-6{fill:#fff;}.cls-6{opacity:0.1;}</style></defs><title/><circle class="cls-1" cx="758.9" cy="729.7" r="496.1"/><path class="cls-2" d="M1010.8,540.4a475.9,475.9,0,0,1,106.4-153.3l.3-.2c-9.3-9.7-18.9-18.9-28.8-27.8A515,515,0,0,0,932.1,709.7H778.9V234c-6.7-.3-13.3-.4-20-.4s-13.4.1-20,.4V709.7H585.6a511.2,511.2,0,0,0-42-185.2A516.9,516.9,0,0,0,429.1,359.1c-10,8.9-19.6,18.1-28.8,27.8l.2.2A475.9,475.9,0,0,1,506.9,540.4a472.4,472.4,0,0,1,38.7,169.3H263.2c-.3,6.6-.4,13.3-.4,20s.1,13.4.4,20H545.6A472.4,472.4,0,0,1,506.9,919a477,477,0,0,1-106.4,153.3l-.2.2c9.2,9.6,18.8,18.9,28.8,27.8A516.9,516.9,0,0,0,543.6,934.9a511.2,511.2,0,0,0,42-185.2H738.9v475.7c6.6.3,13.3.4,20,.4s13.3-.1,20-.4V749.7H932.1a515,515,0,0,0,156.6,350.6c9.9-8.9,19.5-18.2,28.8-27.8l-.3-.2A477,477,0,0,1,1010.8,919a472.2,472.2,0,0,1-38.6-169.3h282.4c.2-6.6.4-13.3.4-20s-.2-13.4-.4-20H972.2A472.2,472.2,0,0,1,1010.8,540.4Z"/><path class="cls-3" d="M751.9,1072.9A595,595,0,0,0,705.8,1223a515.6,515.6,0,0,0,53.1,2.8c273.9,0,496.1-222.1,496.1-496.1v-1.6a593.2,593.2,0,0,0-503.1,344.8Z"/><circle class="cls-4" cx="1291" cy="1320.2" r="496.1"/><polygon class="cls-2" points="1352.1 1187 1165.4 1224.5 1143.4 1413.7 1316.5 1493.1 1445.5 1353 1352.1 1187"/><path class="cls-2" d="M1348.2,831.3h0a9.7,9.7,0,0,0-1.3,11.3l86.5,153.8a9.7,9.7,0,0,0,10.3,4.7l172.9-34.8a9.6,9.6,0,0,0,7.7-8.3h0a9.3,9.3,0,0,0-3.1-8.2,493.3,493.3,0,0,0-123.3-80.5,498.7,498.7,0,0,0-141.4-41A9.6,9.6,0,0,0,1348.2,831.3Z"/><path class="cls-2" d="M1335.8,1242.6a21.2,21.2,0,0,1-8.4-1.8,20,20,0,0,1-9.8-26.5l122.7-267.5a20,20,0,0,1,36.4,16.7L1354,1230.9A20,20,0,0,1,1335.8,1242.6Z"/><path class="cls-2" d="M843.8,1114.8h0a9.5,9.5,0,0,0,10.2,4.7l173-34.8a9.6,9.6,0,0,0,7.7-8.3l20.4-175.2a9.5,9.5,0,0,0-5.5-9.9h0a9.6,9.6,0,0,0-8.9.4,499.6,499.6,0,0,0-197.3,214.2A9.7,9.7,0,0,0,843.8,1114.8Z"/><path class="cls-2" d="M1202.2,1284a19.7,19.7,0,0,1-14.6-6.4l-187.4-201a20,20,0,0,1,29.3-27.3l187.4,201.1a20,20,0,0,1-14.7,33.6Z"/><path class="cls-2" d="M957.4,1682.1h0a9.7,9.7,0,0,0,7.7-8.3l20.4-175.3a9.7,9.7,0,0,0-5.5-9.9l-160.4-73.5a9.5,9.5,0,0,0-11.1,2.2h0a9.5,9.5,0,0,0-2.3,8.5,495.1,495.1,0,0,0,52.4,137.6,503,503,0,0,0,90.3,116.3A9.8,9.8,0,0,0,957.4,1682.1Z"/><path class="cls-2" d="M895.8,1556.5a20,20,0,0,1-8.9-37.9l337.2-167.3a20,20,0,0,1,17.8,35.8L904.7,1554.4A20.4,20.4,0,0,1,895.8,1556.5Z"/><path class="cls-2" d="M1532.1,1749.3h0a9.6,9.6,0,0,0-5.5-9.9l-160.4-73.6a9.7,9.7,0,0,0-11.1,2.3l-119.5,129.8a9.4,9.4,0,0,0-1.3,11.2h0a9.4,9.4,0,0,0,7.3,4.8,497.9,497.9,0,0,0,285.6-57.3A9.5,9.5,0,0,0,1532.1,1749.3Z"/><path class="cls-2" d="M1367.2,1711.8a20.1,20.1,0,0,1-19.4-15l-58.2-228.2a20,20,0,0,1,38.7-9.9l58.3,228.2a20,20,0,0,1-14.4,24.3A22,22,0,0,1,1367.2,1711.8Z"/><path class="cls-2" d="M1773.6,1223.5h0a9.5,9.5,0,0,0-11.1,2.2L1643,1355.5a9.5,9.5,0,0,0-1.3,11.2l86.5,153.8a9.6,9.6,0,0,0,10.3,4.8h0a10,10,0,0,0,6.9-5.6,499.3,499.3,0,0,0,33.7-289.2A9.6,9.6,0,0,0,1773.6,1223.5Z"/><path class="cls-2" d="M1686.5,1382.6h-.8L1359,1369.6a20,20,0,0,1,1.6-40l326.7,13a20,20,0,0,1-.8,40Z"/><path class="cls-3" d="M1165.1,1673.5c-249-114.2-358.3-408.7-244-657.8A503.2,503.2,0,0,1,953,956.9a494.6,494.6,0,0,0-112.9,156.4c-114.2,249-5,543.5,244,657.8,228.5,104.8,495.2,21.5,625.9-185.2C1567.3,1718.6,1353.2,1759.8,1165.1,1673.5Z"/><path class="cls-5" d="M1497.9,869.3a492.9,492.9,0,0,0-247.7-43.6c-37.5,78.4-41.3,179.1-2.2,282.2,76,200.7,285.5,334.3,468,298.4a281,281,0,0,0,67.1-22C1810.5,1174.4,1700.4,962.2,1497.9,869.3Z"/><path class="cls-6" d="M516.7,296.6C584,490.8,768.5,630.3,985.6,630.3a494,494,0,0,0,242.1-63C1160.5,373,976,233.6,758.9,233.6A494.1,494.1,0,0,0,516.7,296.6Z"/></svg>