<?xml version="1.0" ?><!DOCTYPE svg  PUBLIC '-//W3C//DTD SVG 1.1//EN'  'http://www.w3.org/Graphics/SVG/1.1/DTD/svg11.dtd'><svg enable-background="new 0 0 128 128" id="Layer_1" version="1.1" viewBox="0 0 128 128" xml:space="preserve" xmlns="http://www.w3.org/2000/svg" xmlns:xlink="http://www.w3.org/1999/xlink"><path d="M45.3,84.6c0.7,3.1-1.2,6.2-4.3,6.9l-22.4,5.3L7.7,50.5l22.4-5.3c3.1-0.7,6.2,1.2,6.9,4.3  c-0.7-3.1,1.2-6.2,4.3-6.9l70.1-16.4l10.8,46.3L52.2,88.9C49.1,89.6,46,87.7,45.3,84.6z" fill="#FFFFFF"/><path d="M41.4,42.6c-3.1,0.7-5,3.8-4.3,6.9c-0.7-3.1-3.8-5-6.9-4.3L7.7,50.5l2,8.4l103.7-24.3l-2-8.4L41.4,42.6z" fill="#8DCEA8"/><path d="M45.3,84.6c0.7,3.1-1.2,6.2-4.3,6.9l-22.4,5.3  L7.7,50.5l22.4-5.3c3.1-0.7,6.2,1.2,6.9,4.3c-0.7-3.1,1.2-6.2,4.3-6.9l70.1-16.4l10.8,46.3L52.2,88.9C49.1,89.6,46,87.7,45.3,84.6z" fill="none" stroke="#3D3D3D" stroke-miterlimit="10" stroke-width="2"/><rect fill="#53AF80" height="4.3" transform="matrix(0.9736 -0.2283 0.2283 0.9736 -14.8813 21.0734)" width="67.7" x="49.8" y="72.7"/><rect fill="#53AF80" height="4.3" transform="matrix(0.9736 -0.2283 0.2283 0.9736 -19.1379 9.2452)" width="18.7" x="21" y="85.2"/><path d="M40.5,79.2c0,3.2-2.6,5.8-5.8,5.8H12V38h22.8c3.2,0,5.8,2.6,5.8,5.8c0-3.2,2.6-5.8,5.8-5.8H118v47H46.3  C43.1,85,40.5,82.4,40.5,79.2z" fill="#FFFFFF"/><path d="M46.3,38c-3.2,0-5.8,2.6-5.8,5.8c0-3.2-2.6-5.8-5.8-5.8H12v8h106v-8H46.3z" fill="#8DCEA8"/><path d="M40,79.6c0,3.2-2.1,5.4-5.2,5.4H12V38h22.8  c3.2,0,5.2,2,5.2,5.2c0-3.2,3.1-5.2,6.3-5.2H118v47H46.3C43.1,85,40,82.8,40,79.6z" fill="none" stroke="#3D3D3D" stroke-miterlimit="10" stroke-width="2"/><line fill="none" stroke="#3D3D3D" stroke-dasharray="3,4" stroke-linecap="square" stroke-linejoin="round" stroke-miterlimit="10" stroke-width="2" x1="40" x2="40" y1="46" y2="77"/><rect fill="#53AF80" height="4" width="68" x="46" y="77"/><rect fill="#53AF80" height="4" width="19" x="16" y="77"/><line fill="none" stroke="#3D3D3D" stroke-miterlimit="10" stroke-width="2" x1="19" x2="34" y1="53" y2="53"/><line fill="none" stroke="#3D3D3D" stroke-miterlimit="10" stroke-width="2" x1="19" x2="34" y1="57" y2="57"/><line fill="none" stroke="#3D3D3D" stroke-miterlimit="10" stroke-width="2" x1="19" x2="26" y1="61" y2="61"/><line fill="none" stroke="#3D3D3D" stroke-miterlimit="10" stroke-width="2" x1="73" x2="110" y1="53" y2="53"/><line fill="none" stroke="#3D3D3D" stroke-miterlimit="10" stroke-width="2" x1="73" x2="110" y1="57" y2="57"/><line fill="none" stroke="#3D3D3D" stroke-miterlimit="10" stroke-width="2" x1="73" x2="95" y1="61" y2="61"/><line fill="none" stroke="#3D3D3D" stroke-miterlimit="10" stroke-width="2" x1="46" x2="62" y1="73" y2="73"/><line fill="none" stroke="#3D3D3D" stroke-miterlimit="10" stroke-width="2" x1="78" x2="88" y1="73" y2="73"/><line fill="none" stroke="#3D3D3D" stroke-miterlimit="10" stroke-width="2" x1="99" x2="114" y1="73" y2="73"/><line fill="none" stroke="#3D3D3D" stroke-miterlimit="10" stroke-width="2" x1="51.9" x2="62.9" y1="60.9" y2="49.9"/><polyline fill="none" points="60,53 60,61 58.9,61 56,57.9 " stroke="#3D3D3D" stroke-miterlimit="10" stroke-width="2"/><polyline fill="none" points="61,53 52,53 52,54 55.6,57.5 " stroke="#3D3D3D" stroke-miterlimit="10" stroke-width="2"/><line fill="none" stroke="#3D3D3D" stroke-miterlimit="10" stroke-width="2" x1="52" x2="52" y1="61" y2="65"/><line fill="none" stroke="#3D3D3D" stroke-miterlimit="10" stroke-width="2" x1="52" x2="48" y1="61" y2="61"/></svg>